<svg xmlns="http://www.w3.org/2000/svg" viewBox="0 0 1333.33 1223.37" shape-rendering="geometricPrecision" text-rendering="geometricPrecision" image-rendering="optimizeQuality" fill-rule="evenodd" clip-rule="evenodd"><path d="M614.81 1143.13c-64.5 49.92-145.42 79.65-233.29 79.65-210.7 0-381.51-170.81-381.51-381.51 0-146.17 82.22-273.12 202.92-337.18 21.24 75.56 61.62 143.11 115.59 197.08 50.4 50.4 112.65 88.94 182.21 111.12-.63 9.77-.96 19.64-.96 29.57 0 115.73 43.51 221.31 115.05 301.28z" fill="#6bbe66"/><path d="M1333.33 841.86c0 210.7-170.81 381.51-381.51 381.51s-381.51-170.81-381.51-381.51c0-4.46.1-8.89.26-13.31 22.05 3.31 44.62 5.03 67.59 5.03 124.82 0 237.84-50.6 319.65-132.41 59.15-59.15 101.98-134.63 121.18-219.08 148.18 52.37 254.35 193.66 254.35 359.77z" fill="#ff4141"/><circle cx="638.16" cy="381.51" r="381.51" fill="#00a1f1"/></svg>