<svg xmlns="http://www.w3.org/2000/svg" viewBox="0 0 1040.56 1333.34" shape-rendering="geometricPrecision" text-rendering="geometricPrecision" image-rendering="optimizeQuality" fill-rule="evenodd" clip-rule="evenodd"><path d="M288.58 726.44c7.3-7.41 19.15-7.44 26.49-.07 7.33 7.37 7.36 19.35.07 26.75l-32 32.46 32.04 32.49c7.23 7.35 7.13 19.25-.22 26.58-7.35 7.33-19.18 7.32-26.4-.03l-31.82-32.26-31.87 32.33a18.597 18.597 0 01-26.49.07c-7.33-7.37-7.36-19.34-.07-26.75l32-32.46-32.04-32.49c-7.23-7.34-7.13-19.25.22-26.58 7.35-7.33 19.17-7.31 26.4.03l31.82 32.27 31.88-32.33zM402.1 54.73v54.24c0 14.04-11.14 26.15-24.7 27.12-2.91.97-6.3 1.45-9.69 1.45H266.98v112.35h506.61V137.54H672.86c-3.39 0-6.78-.48-9.69-1.45-13.56-.97-24.7-13.08-24.7-27.12V54.73H402.1zM253.42 305.59c-11.14 0-21.79-4.84-29.06-12.11-.97-.97-1.45-1.94-2.42-2.91-5.81-7.26-9.68-16.46-9.68-26.15v-55.21H60.55c-1.45 0-3.39.48-4.35 1.94-.97.96-1.94 2.91-1.94 4.36v1056.81c0 1.93.48 3.39 1.94 4.35.97.97 2.42 1.94 4.35 1.94h919.48c1.94 0 3.39-.97 4.36-1.94 1.45-.97 1.94-2.42 1.94-4.35V215.51c0-1.45-.97-3.39-1.94-4.36-.97-1.45-2.91-1.94-4.36-1.94H828.32v55.21c0 9.69-3.87 18.89-9.69 26.15-.97.97-1.45 1.93-2.42 2.91-7.26 7.26-17.92 12.11-29.06 12.11H253.42zM61.03 1333.33c-16.47 0-31.96-6.78-43.11-17.92C6.78 1304.27 0 1289.26 0 1272.31V215.5c0-16.95 6.78-31.96 17.92-43.1s26.15-17.92 43.11-17.92h151.71v-30.03c0-11.14 4.36-21.31 12.11-29.06 7.26-7.27 17.43-12.11 29.05-12.11h93.95V45.5c0-12.59 5.33-23.73 13.56-31.96S380.78-.02 393.37-.02h253.81c12.59 0 23.73 5.33 31.96 13.56S692.7 32.91 692.7 45.5v37.78h93.95c11.62 0 21.79 4.84 29.06 12.11 7.75 7.75 12.11 17.92 12.11 29.06v30.03h151.71c16.95 0 31.96 6.78 43.11 17.92 11.14 11.14 17.92 26.15 17.92 43.1v1056.81c0 16.95-6.78 31.96-17.92 43.1s-26.64 17.92-43.11 17.92H61.02zm767.61-252.64c15.01 0 27.61-12.11 27.61-27.61 0-15.01-12.11-27.61-27.61-27.61H461.82c-15.5 0-27.61 12.59-27.61 27.61 0 15.5 12.59 27.61 27.61 27.61v-.01h366.82v.01zm0-529.45c15.01 0 27.61-12.11 27.61-27.61 0-15.02-12.11-27.61-27.61-27.61H461.82c-15.5 0-27.61 12.59-27.61 27.61 0 15.5 12.59 27.61 27.61 27.61h366.82zm0 261.15c15.01 0 27.61-12.11 27.61-27.61 0-15.01-12.11-27.6-27.61-27.6H461.82c-15.5 0-27.61 12.59-27.61 27.6 0 15.5 12.59 27.61 27.61 27.61h366.82zm-629.09 239.42c-7.51-11.22-4.51-26.4 6.71-33.91 11.22-7.51 26.4-4.51 33.91 6.71l13.32 19.79 52.87-64.31c8.57-10.42 23.96-11.92 34.39-3.35 10.42 8.57 11.93 23.97 3.35 34.39l-73.13 88.96a24.54 24.54 0 01-5.84 5.5c-11.22 7.51-26.4 4.51-33.91-6.71l-31.66-47.06zm0-502.14c-7.51-11.21-4.51-26.4 6.71-33.91 11.22-7.51 26.4-4.51 33.91 6.71l13.32 19.79 52.87-64.32c8.57-10.43 23.96-11.93 34.39-3.35 10.42 8.57 11.93 23.97 3.35 34.39l-73.13 88.97a24.167 24.167 0 01-5.85 5.49c-11.22 7.51-26.4 4.51-33.91-6.71l-31.66-47.06z"/></svg>